<mxfile host="Electron" modified="2024-02-25T15:20:57.667Z" agent="Mozilla/5.0 (Macintosh; Intel Mac OS X 10_15_7) AppleWebKit/537.36 (KHTML, like Gecko) draw.io/23.0.2 Chrome/120.0.6099.109 Electron/28.1.0 Safari/537.36" etag="bNol0A6DBQBoEasJgtHs" version="23.0.2" type="device">
  <diagram name="Страница — 1" id="cWYMyHin0VK8x5IcDced">
    <mxGraphModel dx="954" dy="674" grid="1" gridSize="10" guides="1" tooltips="1" connect="1" arrows="1" fold="1" page="1" pageScale="1" pageWidth="827" pageHeight="1169" math="0" shadow="0">
      <root>
        <mxCell id="0" />
        <mxCell id="1" parent="0" />
        <mxCell id="ja6OJMPtS6syEYrrgDrP-1" value="" style="rounded=0;whiteSpace=wrap;html=1;" vertex="1" parent="1">
          <mxGeometry x="50" y="40" width="790" height="60" as="geometry" />
        </mxCell>
        <mxCell id="ja6OJMPtS6syEYrrgDrP-2" value="User" style="text;html=1;strokeColor=none;fillColor=none;align=center;verticalAlign=middle;whiteSpace=wrap;rounded=0;" vertex="1" parent="1">
          <mxGeometry x="710" y="50" width="60" height="30" as="geometry" />
        </mxCell>
        <mxCell id="ja6OJMPtS6syEYrrgDrP-3" value="Выход" style="text;html=1;strokeColor=none;fillColor=none;align=center;verticalAlign=middle;whiteSpace=wrap;rounded=0;" vertex="1" parent="1">
          <mxGeometry x="770" y="50" width="60" height="30" as="geometry" />
        </mxCell>
        <mxCell id="ja6OJMPtS6syEYrrgDrP-4" value="Сменить пароль" style="text;html=1;strokeColor=none;fillColor=none;align=center;verticalAlign=middle;whiteSpace=wrap;rounded=0;" vertex="1" parent="1">
          <mxGeometry x="610" y="50" width="100" height="30" as="geometry" />
        </mxCell>
        <mxCell id="ja6OJMPtS6syEYrrgDrP-5" value="Имя магазина" style="text;html=1;strokeColor=none;fillColor=none;align=center;verticalAlign=middle;whiteSpace=wrap;rounded=0;strokeWidth=2;fontSize=19;" vertex="1" parent="1">
          <mxGeometry x="70" y="55" width="100" height="30" as="geometry" />
        </mxCell>
        <mxCell id="ja6OJMPtS6syEYrrgDrP-6" value="" style="rounded=0;whiteSpace=wrap;html=1;fillColor=#f5f5f5;fontColor=#333333;strokeColor=#666666;" vertex="1" parent="1">
          <mxGeometry x="50" y="100" width="790" height="460" as="geometry" />
        </mxCell>
        <mxCell id="ja6OJMPtS6syEYrrgDrP-7" value="" style="rounded=1;whiteSpace=wrap;html=1;fillColor=#647687;fontColor=#ffffff;strokeColor=#314354;" vertex="1" parent="1">
          <mxGeometry x="80" y="190" width="110" height="240" as="geometry" />
        </mxCell>
        <mxCell id="ja6OJMPtS6syEYrrgDrP-8" value="Меню" style="text;html=1;strokeColor=none;fillColor=none;align=center;verticalAlign=middle;whiteSpace=wrap;rounded=0;" vertex="1" parent="1">
          <mxGeometry x="105" y="200" width="60" height="30" as="geometry" />
        </mxCell>
        <mxCell id="ja6OJMPtS6syEYrrgDrP-9" value="Комментарии" style="text;html=1;strokeColor=none;fillColor=none;align=center;verticalAlign=middle;whiteSpace=wrap;rounded=0;" vertex="1" parent="1">
          <mxGeometry x="105" y="220" width="60" height="30" as="geometry" />
        </mxCell>
        <mxCell id="ja6OJMPtS6syEYrrgDrP-10" value="Создать товар" style="text;html=1;strokeColor=none;fillColor=none;align=center;verticalAlign=middle;whiteSpace=wrap;rounded=0;" vertex="1" parent="1">
          <mxGeometry x="90" y="240" width="90" height="30" as="geometry" />
        </mxCell>
        <mxCell id="ja6OJMPtS6syEYrrgDrP-11" value="Пользователи" style="text;html=1;strokeColor=none;fillColor=none;align=center;verticalAlign=middle;whiteSpace=wrap;rounded=0;fontColor=#FF6666;" vertex="1" parent="1">
          <mxGeometry x="105" y="330" width="60" height="30" as="geometry" />
        </mxCell>
        <mxCell id="ja6OJMPtS6syEYrrgDrP-12" value="Рассылка" style="text;html=1;strokeColor=none;fillColor=none;align=center;verticalAlign=middle;whiteSpace=wrap;rounded=0;" vertex="1" parent="1">
          <mxGeometry x="105" y="260" width="60" height="30" as="geometry" />
        </mxCell>
        <mxCell id="ja6OJMPtS6syEYrrgDrP-13" value="Товары" style="text;html=1;strokeColor=none;fillColor=none;align=center;verticalAlign=middle;whiteSpace=wrap;rounded=0;" vertex="1" parent="1">
          <mxGeometry x="105" y="280" width="60" height="30" as="geometry" />
        </mxCell>
        <mxCell id="ja6OJMPtS6syEYrrgDrP-14" value="Маркетплейсы" style="text;html=1;strokeColor=none;fillColor=none;align=center;verticalAlign=middle;whiteSpace=wrap;rounded=0;fontColor=#FF6666;" vertex="1" parent="1">
          <mxGeometry x="105" y="350" width="60" height="30" as="geometry" />
        </mxCell>
        <mxCell id="ja6OJMPtS6syEYrrgDrP-15" value="Оценки" style="text;html=1;strokeColor=none;fillColor=none;align=center;verticalAlign=middle;whiteSpace=wrap;rounded=0;fontColor=#FF6666;" vertex="1" parent="1">
          <mxGeometry x="105" y="370" width="60" height="30" as="geometry" />
        </mxCell>
      </root>
    </mxGraphModel>
  </diagram>
</mxfile>
